<?xml version="1.0" encoding="iso-8859-1"?>
<!-- Generator: Adobe Illustrator 18.0.0, SVG Export Plug-In . SVG Version: 6.00 Build 0)  -->
<!DOCTYPE svg PUBLIC "-//W3C//DTD SVG 1.1//EN" "http://www.w3.org/Graphics/SVG/1.1/DTD/svg11.dtd">
<svg version="1.1" id="Capa_1" xmlns="http://www.w3.org/2000/svg" xmlns:xlink="http://www.w3.org/1999/xlink" x="0px" y="0px"
	 viewBox="0 0 475.699 475.699" style="enable-background:new 0 0 475.699 475.699;" xml:space="preserve">
<g>
	<path style="fill:#F98680;" d="M466.206,251.603c-3.216,0-6.354-1.634-8.139-4.587c-29.026-48.014-73.658-85.789-125.675-106.365
		c-30.104-11.909-61.914-17.947-94.543-17.947s-64.438,6.038-94.542,17.947c-52.018,20.576-96.65,58.351-125.676,106.365
		c-2.714,4.49-8.555,5.93-13.044,3.215c-4.49-2.714-5.93-8.555-3.215-13.044c31.163-51.549,79.087-92.108,134.946-114.204
		c32.339-12.793,66.499-19.279,101.531-19.279s69.193,6.486,101.532,19.279c55.858,22.096,103.783,62.654,134.946,114.204
		c2.714,4.49,1.275,10.33-3.215,13.044C469.575,251.161,467.88,251.603,466.206,251.603z"/>
	<path style="fill:#FFE473;" d="M441.379,257.104c-41.62,68.86-117.2,114.89-203.53,114.89s-161.91-46.03-203.53-114.89
		c26.75-44.25,67.52-79.08,116.16-98.32c27.05-10.7,56.52-16.58,87.37-16.58c30.85,0,60.32,5.88,87.37,16.58
		C373.859,178.024,414.629,212.854,441.379,257.104z"/>
	<path style="fill:#26A3BF;" d="M355.539,237.634h-117.69v-95.43c30.85,0,60.32,5.88,87.37,16.58
		C344.069,179.654,355.539,207.304,355.539,237.634z"/>
	<path style="fill:#1E94A8;" d="M355.539,237.634c0,65-52.69,117.7-117.69,117.7v-117.7H355.539z"/>
	<path style="fill:#1E94A8;" d="M237.849,142.204v95.43h-117.69c0-30.33,11.47-57.98,30.32-78.85
		C177.529,148.084,206.999,142.204,237.849,142.204z"/>
	<path style="fill:#26A3BF;" d="M237.849,237.634v117.7c-65,0-117.69-52.7-117.69-117.7H237.849z"/>
	<circle style="fill:#F98680;" cx="237.849" cy="237.638" r="78.854"/>
	<circle style="fill:#808080;" cx="237.849" cy="237.638" r="37.524"/>
	<circle style="opacity:0.5;fill:#FFFFFF;" cx="278.171" cy="200.841" r="31.498"/>
	<circle style="opacity:0.5;fill:#FFFFFF;" cx="170.176" cy="293.836" r="19.499"/>
</g>
<g>
</g>
<g>
</g>
<g>
</g>
<g>
</g>
<g>
</g>
<g>
</g>
<g>
</g>
<g>
</g>
<g>
</g>
<g>
</g>
<g>
</g>
<g>
</g>
<g>
</g>
<g>
</g>
<g>
</g>
</svg>
